<svg width="823.3920288085938" height="247"><defs id="SvgjsDefs2845"></defs><g id="SvgjsG2846" featurekey="root" fill="#ffffff" transform="matrix(1,0,0,1,NaN,NaN)"></g><g id="SvgjsG2847" featurekey="symbol1" fill="#e22c5e" transform="matrix(2.058814289702069,0,0,2.058814289702069,342,10)"><title>helicopter_2</title><desc>Created with Sketch.</desc><g stroke="none" stroke-width="1" fill="none" fill-rule="evenodd"><g transform="translate(-416.000000, -426.000000)" fill="#e22c5e"><g transform="translate(416.000000, 426.000000)"><path d="M64.7149859,19.9710085 C64.3535394,19.3685977 63.7025257,19 63,19 L37,19 C35.8954305,19 35,19.8954305 35,21 L35,25 C35,29.4152186 31.4118563,33 26.9959045,33 L11.0040955,33 C6.92994822,33 5.25712059,30.4134458 6.92878782,26.6986298 L7.7188982,24.9428289 C9.66459766,20.6190524 15.2583685,17 20.0017797,17 L27.0037401,17 L63,17 C63.7025257,17 64.3535394,16.6314023 64.7149859,16.0289915 L67.7149859,11.0289915 C68.2832822,10.081831 67.976152,8.85331047 67.0289915,8.28501415 C66.081831,7.71671783 64.8533105,8.02384796 64.2850141,8.97100849 L61.8999939,13 L27.0037401,13 L20.0017797,13 C13.6838919,13 6.66266479,17.5425866 4.07121218,23.3013702 L3.2811018,25.0571711 C0.418203093,31.4191682 4.0275494,37 11.0040955,37 L26.9959045,37 C33.6201563,37 39,31.6251975 39,25 L39,23 L61.8621051,23 L64.2850141,27.0289915 C64.8533105,27.976152 66.081831,28.2832822 67.0289915,27.7149859 C67.976152,27.1466895 68.2832822,25.918169 67.7149859,24.9710085 L64.7149859,19.9710085 Z"></path><path d="M37,48 C38.1045695,48 39,47.1045695 39,46 C39,44.8954305 38.1045695,44 37,44 L31.1323808,44 L28.7149859,39.9710085 C28.1466895,39.023848 26.918169,38.7167178 25.9710085,39.2850141 C25.023848,39.8533105 24.7167178,41.081831 25.2850141,42.0289915 L26.4676192,44 L17.5323808,44 L18.7149859,42.0289915 C19.2832822,41.081831 18.976152,39.8533105 18.0289915,39.2850141 C17.081831,38.7167178 15.8533105,39.023848 15.2850141,39.9710085 L12.8676192,44 L8,44 C8,42.8954305 7.1045695,42 6,42 C4.8954305,42 4,42.8954305 4,44 L4,45 C4,46.6589146 5.33970677,48 6.99631511,48 L37,48 Z"></path><path d="M29,6 L29,22.0041738 C29,25.3101087 26.313352,28 23.0037973,28 L6,28 C4.8954305,28 4,27.1045695 4,26 C4,24.8954305 4.8954305,24 6,24 L23.0037973,24 C24.103132,24 25,23.1020493 25,22.0041738 L25,6 L2,6 C0.8954305,6 0,5.1045695 0,4 C0,2.8954305 0.8954305,2 2,2 L25,2 C25,0.8954305 25.8954305,0 27,0 C28.1045695,0 29,0.8954305 29,2 L52,2 C53.1045695,2 54,2.8954305 54,4 C54,5.1045695 53.1045695,6 52,6 L29,6 L29,6 Z"></path></g></g></g></g><g id="SvgjsG2848" featurekey="text1" fill="#5460cd" transform="matrix(4.834382131234898,0,0,4.834382131234898,0,105.60158974715492)"><path d="M13.26 20 l-3.96 0 l-2.92 -4.58 c-1.2 0.04 -3.2 0.02 -3.2 0.02 l0 4.56 l-3.18 0 l0 -15 l7.08 0 c2.84 0 5.02 2.28 5.02 5.18 c0 1.96 -1 3.28 -2.5 4.3 z M3.18 12.66 c0 0 3.06 0.08 3.9 -0.02 c1.12 -0.14 1.9 -1.14 1.9 -2.48 s-0.78 -2.16 -1.9 -2.32 c-0.88 -0.12 -3.9 -0.04 -3.9 -0.04 l0 4.86 z M17.66 17.22 l7.84 0 l0 2.78 l-11.02 0 l0 -15 l11.02 0 l0 2.76 l-7.84 0 l-0.02 0 l0 3.36 l5.8 0 l0 2.7 l-5.8 0 l0 3.4 l0 0 l0.02 0 z M34.18 4.98 l7.3 15.02 l-2.98 0 l-0.94 -1.96 l-6.74 0 l-0.96 1.96 l-2.98 0 z M32.040000000000006 15.54 l4.3 0 l-2.16 -4.44 z M53.68000000000001 15.280000000000001 l2.94 0.96 c-1.2 2.38 -3.74 3.92 -6.54 3.92 c-4.16 0 -7.54 -3.44 -7.54 -7.66 s3.38 -7.66 7.54 -7.66 c2.8 0 5.36 1.54 6.54 3.94 l-2.94 0.84 c-0.68 -1.02 -1.82 -1.74 -3.6 -1.74 c-2.68 0.02 -4.24 2.24 -4.24 4.62 s1.58 4.54 4.24 4.54 c1.84 0 2.92 -0.72 3.6 -1.76 z M67.72 5 l0 2.76 l-3.24 0 l0 12.24 l-3.18 0 l0 -12.24 l-3.26 0 l0 -2.76 l3.26 0 l3.18 0 l3.24 0 z  M83.98 15.280000000000001 l2.94 0.96 c-1.2 2.38 -3.74 3.92 -6.54 3.92 c-4.16 0 -7.54 -3.44 -7.54 -7.66 s3.38 -7.66 7.54 -7.66 c2.8 0 5.36 1.54 6.54 3.94 l-2.94 0.84 c-0.68 -1.02 -1.82 -1.74 -3.6 -1.74 c-2.68 0.02 -4.24 2.24 -4.24 4.62 s1.58 4.54 4.24 4.54 c1.84 0 2.92 -0.72 3.6 -1.76 z M97.26 5 l3.18 0 l0 15 l-3.18 0 l0 -5.9 l-5.74 0 l0 5.9 l-3.18 0 l0 -15 l3.18 0 l0 6.36 l5.74 0 l0 -6.36 z M109.42000000000002 20.2 c-4.16 0 -7.54 -3.44 -7.54 -7.66 s3.38 -7.66 7.54 -7.66 s7.54 3.44 7.54 7.66 s-3.38 7.66 -7.54 7.66 z M109.42000000000002 8.04 c-2.38 0 -4.32 2.02 -4.32 4.5 s1.94 4.5 4.32 4.5 s4.32 -2.02 4.32 -4.5 s-1.94 -4.5 -4.32 -4.5 z M123.96000000000001 5 l1.44 0 c2.46 0 5.04 2.28 5.04 5.18 s-2.2 5.24 -5.04 5.24 c-0.78 0 -3.9 0.04 -3.9 0.04 l0 4.54 l-3.16 0 l0 -15 l5.62 0 z M125.36 12.64 c1.18 -0.24 2 -1.12 2 -2.46 s-0.82 -2.14 -2 -2.36 c-0.32 -0.06 -3.86 -0.02 -3.86 -0.02 l0 0.2 l0 0 l0 4.68 s3.38 0.06 3.86 -0.04 z M137.12 5 l1.44 0 c2.46 0 5.04 2.28 5.04 5.18 s-2.2 5.24 -5.04 5.24 c-0.78 0 -3.9 0.04 -3.9 0.04 l0 4.54 l-3.16 0 l0 -15 l5.62 0 z M138.52 12.64 c1.18 -0.24 2 -1.12 2 -2.46 s-0.82 -2.14 -2 -2.36 c-0.32 -0.06 -3.86 -0.02 -3.86 -0.02 l0 0.2 l0 0 l0 4.68 s3.38 0.06 3.86 -0.04 z M147.84 17.22 l7.84 0 l0 2.78 l-11.02 0 l0 -15 l11.02 0 l0 2.76 l-7.84 0 l-0.02 0 l0 3.36 l5.8 0 l0 2.7 l-5.8 0 l0 3.4 l0 0 l0.02 0 z M170.32 20 l-3.96 0 l-2.92 -4.58 c-1.2 0.04 -3.2 0.02 -3.2 0.02 l0 4.56 l-3.18 0 l0 -15 l7.08 0 c2.84 0 5.02 2.28 5.02 5.18 c0 1.96 -1 3.28 -2.5 4.3 z M160.24 12.66 c0 0 3.06 0.08 3.9 -0.02 c1.12 -0.14 1.9 -1.14 1.9 -2.48 s-0.78 -2.16 -1.9 -2.32 c-0.88 -0.12 -3.9 -0.04 -3.9 -0.04 l0 4.86 z"></path></g><g id="SvgjsG2849" featurekey="text3" fill="#1f2560" transform="matrix(1.7318564445076818,0,0,1.7318564445076818,163.67948704323396,200.12353411856205)"><path d="M12.661 21.4578 c0.16949 0.13559 0.16933 0.30508 0.016784 0.45763 c-1.2542 1.3729 -3.0339 2.2032 -5.0678 2.2032 c-3.7288 0 -6.8475 -2.9998 -6.8475 -6.8642 c0 -3.8475 3.1186 -6.9322 6.8475 -6.9322 c2.0508 0 3.8475 0.84746 5.1186 2.2373 c0.15254 0.15254 0.13559 0.32203 -0.016949 0.45763 l-1.4068 1.1356 c-0.16966 0.13559 -0.32203 0.11864 -0.45763 -0.033898 c-0.72881 -0.76271 -1.8644 -1.4575 -3.2203 -1.4575 c-2.4915 0 -4.4405 2.1524 -4.4405 4.5931 c0 2.4746 1.949 4.5254 4.4405 4.5254 c1.339 0 2.4576 -0.66102 3.1695 -1.4068 c0.15254 -0.15254 0.30508 -0.16949 0.47458 -0.050847 z M23.335046979771228 24.11864 c3.7966 0 6.8983 -3.0507 6.8983 -6.9151 c0 -3.8305 -3.1017 -6.8814 -6.8983 -6.8814 c-3.8305 0 -6.9322 3.0508 -6.9322 6.8814 c0 3.8644 3.1017 6.9151 6.9322 6.9151 z M23.335046979771228 21.7798 c-2.4407 0 -4.5085 -2.1017 -4.5085 -4.5763 c0 -2.4576 2.0678 -4.5422 4.5085 -4.5422 s4.4915 2.0846 4.4915 4.5422 c0 2.4746 -2.0508 4.5763 -4.4915 4.5763 z M38.856631247678045 10.441 c4.4068 0 6.9661 3.5424 6.9661 6.7288 c0 3.6102 -2.5763 6.8303 -6.9661 6.8303 l-4.4746 0 c-0.18644 0 -0.33898 -0.15238 -0.33898 -0.33881 l0 -12.898 c0 -0.16949 0.13559 -0.32203 0.32203 -0.32203 l4.4915 0 z M38.856631247678045 21.6612 c2.7966 0 4.4746 -2.1866 4.4576 -4.5086 c0 -2.288 -1.5932 -4.3727 -4.4576 -4.3727 l-2.4068 0 l0.016949 8.8814 l2.3898 0 z M58.39542229524588 12.78 l-6.1697 -0.00033103 l0 3.4068 l3.322 0 c0.18644 0 0.33898 0.15254 0.33898 0.33915 l0 1.6778 c0 0.20339 -0.13559 0.3222 -0.33898 0.3222 l-3.322 0 l0 3.1356 l6.1695 0 c0.18644 0 0.33881 0.15238 0.33881 0.33881 l0 1.6613 c0 0.18644 -0.15238 0.33881 -0.33881 0.33881 l-8.2542 0 c-0.18644 0 -0.33898 -0.15238 -0.33898 -0.33881 l0 -12.898 c0 -0.16949 0.13559 -0.32203 0.3222 -0.32203 l8.2712 0 c0.18644 0 0.33881 0.15254 0.33881 0.32203 l0 1.6949 c0 0.18644 -0.15238 0.32203 -0.33881 0.32203 z  M86.81152303444935 10.441 c0.18644 0 0.39032 0.15221 0.28863 0.38949 l-6.39 13 c-0.067797 0.13559 -0.20339 0.25407 -0.35576 0.25407 l-0.13559 0 c-0.16949 0 -0.30508 -0.11848 -0.37288 -0.25407 l-1.9831 -4.1695 l-2 4.1695 c-0.067797 0.13559 -0.18644 0.25407 -0.3561 0.25407 l-0.13559 0 c-0.16949 0 -0.30508 -0.11848 -0.35593 -0.25407 l-6.3898 -13.017 c-0.11881 -0.22017 0.10153 -0.37271 0.28797 -0.37271 l2.2203 0 c0.16949 0 0.25424 0.15254 0.33898 0.33898 l3.9659 8.4237 l1.0678 -2.3729 l-2.8812 -6.0169 c-0.10169 -0.22017 0.10169 -0.37271 0.28814 -0.37271 l2.2203 0 c0.18644 0 0.27119 0.15254 0.33898 0.32203 l1.3898 3.0678 l1.3729 -3.0508 c0.084746 -0.18644 0.16949 -0.33898 0.35593 -0.33898 l2.2034 0 c0.20339 0 0.40678 0.15254 0.28814 0.38983 l-2.8644 6 l1.0678 2.3729 l3.949 -8.4407 c0.084746 -0.16949 0.16949 -0.32203 0.35593 -0.32203 l2.2203 0 z M92.68903103116973 10.441 l-1.6778 0 c-0.18644 0 -0.32203 0.15254 -0.32203 0.32203 l0 12.898 c0 0.18644 0.15254 0.33881 0.33898 0.33881 l1.678 0 c0.16933 0 0.32186 -0.16933 0.32186 -0.33881 l0 -12.898 c0 -0.16949 -0.16949 -0.32203 -0.33898 -0.32203 z M107.32895597704265 10.441 c0.16949 0 0.32203 0.13592 0.32203 0.32237 l0 1.6949 c0 0.16933 -0.15254 0.32186 -0.32203 0.32186 l-3.8305 0 l0 10.881 c0 0.20339 -0.13559 0.33881 -0.32203 0.33881 l-1.2542 0 c-0.54237 0 -0.84746 -0.37288 -0.84746 -0.86441 l0 -10.356 l-3.8136 0 c-0.16949 0 -0.33898 -0.13559 -0.33898 -0.32203 l0 -1.678 c0 -0.18644 0.15254 -0.33898 0.33898 -0.33898 l10.068 0 z M122.49507075342405 10.441 c0.18644 0 0.33881 0.15254 0.33881 0.32203 l0 12.898 c0 0.20339 -0.13559 0.33881 -0.30525 0.33881 l-1.288 0 c-0.54237 0 -0.84763 -0.37288 -0.84763 -0.86441 l0 -4.5422 l-6.5085 0 l0 5.0678 c0 0.16949 -0.13559 0.33881 -0.32203 0.33881 l-1.7627 0 c-0.18644 0 -0.33898 -0.15238 -0.33898 -0.33881 l0 -12.898 c0 -0.16949 0.13559 -0.32203 0.3222 -0.32203 l1.7627 0 c0.18644 0 0.33898 0.15254 0.33898 0.32203 l0 5.3898 l6.5085 0 l0 -5.3898 c0 -0.16949 0.13559 -0.32203 0.33898 -0.32203 l1.7629 0 z M133.830202478958 24.11864 c3.7966 0 6.8983 -3.0507 6.8983 -6.9151 c0 -3.8305 -3.1017 -6.8814 -6.8983 -6.8814 c-3.8305 0 -6.9322 3.0508 -6.9322 6.8814 c0 3.8644 3.1017 6.9151 6.9322 6.9151 z M133.830202478958 21.7798 c-2.4407 0 -4.5085 -2.1017 -4.5085 -4.5763 c0 -2.4576 2.0678 -4.5422 4.5085 -4.5422 s4.4915 2.0846 4.4915 4.5422 c0 2.4746 -2.0508 4.5763 -4.4915 4.5763 z M155.0974867468648 10.424 l-1.7798 0 c-0.18644 0 -0.32203 0.11864 -0.32203 0.33898 l0 8.2203 c0 1.7458 -1.1186 2.7966 -2.9661 2.7966 c-1.8305 0 -2.8983 -1.0508 -2.8983 -2.7966 l0 -8.2203 c0 -0.20339 -0.13559 -0.33898 -0.32203 -0.33898 l-1.7458 0 c-0.20339 0 -0.35576 0.13559 -0.35576 0.33898 l0 8.3051 c0 2.8814 1.9661 5.0507 5.322 5.0507 c3.3729 0 5.3898 -2.1693 5.3898 -5.0507 l0 -8.3051 c0 -0.22034 -0.13559 -0.33898 -0.32203 -0.33898 z M169.5511099978225 10.441 c0.16949 0 0.32203 0.13592 0.32203 0.32237 l0 1.6949 c0 0.16933 -0.15254 0.32186 -0.32203 0.32186 l-3.8305 0 l0 10.881 c0 0.20339 -0.13559 0.33881 -0.32203 0.33881 l-1.2542 0 c-0.54237 0 -0.84746 -0.37288 -0.84746 -0.86441 l0 -10.356 l-3.8136 0 c-0.16949 0 -0.33898 -0.13559 -0.33898 -0.32203 l0 -1.678 c0 -0.18644 0.15254 -0.33898 0.33898 -0.33898 l10.068 0 z  M179.8491224319412 21.6442 l0.96576 -1.1188 c0.20339 -0.23746 0.45763 -0.23746 0.64407 -0.10186 c0.55932 0.47458 1.5593 1.3729 2.8136 1.3729 c1.2203 0 2.2712 -0.4578 2.2712 -1.5086 c0 -1.1017 -1.1356 -1.4237 -2.3051 -1.8983 c-2.4237 -1 -4.1864 -2.0339 -4.1864 -4.2373 c0 -1.7288 1.2712 -3.8136 4.339 -3.8136 c2.0847 0 3.5934 1.1866 4.0341 1.6273 c0.18644 0.18644 0.28814 0.42373 0.11864 0.62712 l-0.84746 1.1186 c-0.16966 0.22034 -0.40678 0.32203 -0.67797 0.13559 c-0.54237 -0.42373 -1.4237 -1.2034 -2.6102 -1.2034 c-1.2034 0 -1.9492 0.69492 -1.9492 1.5085 c0 0.89831 0.77966 1.339 2.0508 1.8475 c2.2203 0.93254 4.4407 1.9325 4.4407 4.3224 c0 1.9831 -1.9659 3.7964 -4.6439 3.7964 c-2.4237 0 -3.9322 -1.5422 -4.3559 -1.949 c-0.15254 -0.13559 -0.30508 -0.32203 -0.10169 -0.52542 z M201.35380347950903 12.78 l-6.1697 -0.00033103 l0 3.4068 l3.322 0 c0.18644 0 0.33898 0.15254 0.33898 0.33915 l0 1.6778 c0 0.20339 -0.13559 0.3222 -0.33898 0.3222 l-3.322 0 l0 3.1356 l6.1695 0 c0.18644 0 0.33881 0.15238 0.33881 0.33881 l0 1.6613 c0 0.18644 -0.15238 0.33881 -0.33881 0.33881 l-8.2542 0 c-0.18644 0 -0.33898 -0.15238 -0.33898 -0.33881 l0 -12.898 c0 -0.16949 0.13559 -0.32203 0.3222 -0.32203 l8.2712 0 c0.18644 0 0.33881 0.15254 0.33881 0.32203 l0 1.6949 c0 0.18644 -0.15238 0.32203 -0.33881 0.32203 z M215.72241656097518 10.441 c0.16949 0 0.32203 0.13592 0.32203 0.32237 l0 1.6949 c0 0.16933 -0.15254 0.32186 -0.32203 0.32186 l-3.8305 0 l0 10.881 c0 0.20339 -0.13559 0.33881 -0.32203 0.33881 l-1.2542 0 c-0.54237 0 -0.84746 -0.37288 -0.84746 -0.86441 l0 -10.356 l-3.8136 0 c-0.16949 0 -0.33898 -0.13559 -0.33898 -0.32203 l0 -1.678 c0 -0.18644 0.15254 -0.33898 0.33898 -0.33898 l10.068 0 z M219.44794133735655 21.6442 l0.96576 -1.1188 c0.20339 -0.23746 0.45763 -0.23746 0.64407 -0.10186 c0.55932 0.47458 1.5593 1.3729 2.8136 1.3729 c1.2203 0 2.2712 -0.4578 2.2712 -1.5086 c0 -1.1017 -1.1356 -1.4237 -2.3051 -1.8983 c-2.4237 -1 -4.1864 -2.0339 -4.1864 -4.2373 c0 -1.7288 1.2712 -3.8136 4.339 -3.8136 c2.0847 0 3.5934 1.1866 4.0341 1.6273 c0.18644 0.18644 0.28814 0.42373 0.11864 0.62712 l-0.84746 1.1186 c-0.16966 0.22034 -0.40678 0.32203 -0.67797 0.13559 c-0.54237 -0.42373 -1.4237 -1.2034 -2.6102 -1.2034 c-1.2034 0 -1.9492 0.69492 -1.9492 1.5085 c0 0.89831 0.77966 1.339 2.0508 1.8475 c2.2203 0.93254 4.4407 1.9325 4.4407 4.3224 c0 1.9831 -1.9659 3.7964 -4.6439 3.7964 c-2.4237 0 -3.9322 -1.5422 -4.3559 -1.949 c-0.15254 -0.13559 -0.30508 -0.32203 -0.10169 -0.52542 z M242.2572223849244 10.441 c0.16949 0 0.32203 0.13592 0.32203 0.32237 l0 1.6949 c0 0.16933 -0.15254 0.32186 -0.32203 0.32186 l-3.8305 0 l0 10.881 c0 0.20339 -0.13559 0.33881 -0.32203 0.33881 l-1.2542 0 c-0.54237 0 -0.84746 -0.37288 -0.84746 -0.86441 l0 -10.356 l-3.8136 0 c-0.16949 0 -0.33898 -0.13559 -0.33898 -0.32203 l0 -1.678 c0 -0.18644 0.15254 -0.33898 0.33898 -0.33898 l10.068 0 z M259.2873371613058 23.62712 c0.10169 0.20339 0.034229 0.37271 -0.20305 0.37271 l-1.9831 0 c-0.16949 0 -0.27119 -0.08458 -0.33898 -0.22017 l-0.91525 -1.9322 l-6.5256 0 l-0.91525 1.9322 c-0.067797 0.13559 -0.18644 0.22017 -0.33898 0.22017 l-2 0 c-0.20339 0 -0.32203 -0.16933 -0.22034 -0.37271 l6.3898 -13.102 c0.067797 -0.11881 0.15238 -0.16966 0.23712 -0.16966 l0.20339 0 c0.10169 0 0.16949 0.050847 0.23729 0.16966 z M250.3558371613058 19.6441 l4.4576 0 l-2.2203 -4.7288 z M272.9615197342973 10.441 c0.16949 0 0.32203 0.13592 0.32203 0.32237 l0 1.6949 c0 0.16933 -0.15254 0.32186 -0.32203 0.32186 l-3.8305 0 l0 10.881 c0 0.20339 -0.13559 0.33881 -0.32203 0.33881 l-1.2542 0 c-0.54237 0 -0.84746 -0.37288 -0.84746 -0.86441 l0 -10.356 l-3.8136 0 c-0.16949 0 -0.33898 -0.13559 -0.33898 -0.32203 l0 -1.678 c0 -0.18644 0.15254 -0.33898 0.33898 -0.33898 l10.068 0 z M285.68703451067876 12.78 l-6.1697 -0.00033103 l0 3.4068 l3.322 0 c0.18644 0 0.33898 0.15254 0.33898 0.33915 l0 1.6778 c0 0.20339 -0.13559 0.3222 -0.33898 0.3222 l-3.322 0 l0 3.1356 l6.1695 0 c0.18644 0 0.33881 0.15238 0.33881 0.33881 l0 1.6613 c0 0.18644 -0.15238 0.33881 -0.33881 0.33881 l-8.2542 0 c-0.18644 0 -0.33898 -0.15238 -0.33898 -0.33881 l0 -12.898 c0 -0.16949 0.13559 -0.32203 0.3222 -0.32203 l8.2712 0 c0.18644 0 0.33881 0.15254 0.33881 0.32203 l0 1.6949 c0 0.18644 -0.15238 0.32203 -0.33881 0.32203 z"></path></g></svg>
