<?xml version="1.0" encoding="iso-8859-1"?>
<!-- Generator: Adobe Illustrator 19.0.0, SVG Export Plug-In . SVG Version: 6.00 Build 0)  -->
<svg version="1.1" id="Layer_1" xmlns="http://www.w3.org/2000/svg" xmlns:xlink="http://www.w3.org/1999/xlink" x="0px" y="0px"
	 viewBox="0 0 512 512" style="enable-background:new 0 0 512 512;" xml:space="preserve">
<path style="fill:#CEE8FA;" d="M497.617,334.043c0-84.628-68.604-153.232-153.233-153.232v93.813
	c0,32.816,26.603,59.418,59.418,59.418h93.815V334.043z"/>
<g>
	<path style="fill:#2D527C;" d="M481.399,480.123H158.973c-7.944,0-14.383-6.439-14.383-14.383c0-7.944,6.439-14.383,14.383-14.383
		h322.426c7.942,0,14.383,6.439,14.383,14.383C495.782,473.684,489.342,480.123,481.399,480.123z"/>
	<path style="fill:#2D527C;" d="M344.402,166.429c-0.006,0-0.013-0.001-0.019-0.001h-74.001V92.312h114.598
		c7.942,0,14.383-6.439,14.383-14.383s-6.441-14.383-14.383-14.383H270.382V46.26c0-7.944-6.441-14.383-14.383-14.383
		c-7.944,0-14.383,6.439-14.383,14.383v17.287H127.018c-7.944,0-14.383,6.439-14.383,14.383s6.439,14.383,14.383,14.383h114.598
		v74.116H93.186l-9.776-36.487c-1.684-6.288-7.383-10.661-13.893-10.661H14.383C6.439,119.281,0,125.721,0,133.664v117.87
		c0,7.944,6.439,14.383,14.383,14.383s14.383-6.439,14.383-14.383V148.047H58.48l9.776,36.487
		c1.684,6.288,7.383,10.661,13.893,10.661H330v47.851H220.275c-7.944,0-14.383,6.439-14.383,14.383
		c0,7.944,6.439,14.383,14.383,14.383H330v2.815c0,40.694,33.108,73.802,73.802,73.802h79.432v11.409
		c0,16.844-13.704,30.548-30.548,30.548H294.221c-76.562,0-138.849-62.287-138.849-138.849c0-7.944-6.439-14.383-14.383-14.383
		s-14.383,6.439-14.383,14.383c0,92.424,75.192,167.616,167.616,167.616h158.465c32.706,0,59.314-26.609,59.314-59.314v-25.792
		C512,241.628,436.817,166.439,344.402,166.429z M403.802,319.661c-24.834,0-45.036-20.202-45.036-45.036v-78.691
		c65.102,6.73,116.999,58.625,123.727,123.726h-78.691V319.661z"/>
</g>
<g>
</g>
<g>
</g>
<g>
</g>
<g>
</g>
<g>
</g>
<g>
</g>
<g>
</g>
<g>
</g>
<g>
</g>
<g>
</g>
<g>
</g>
<g>
</g>
<g>
</g>
<g>
</g>
<g>
</g>
</svg>
